<svg width="202" height="28" viewBox="0 0 202 28" fill="none" xmlns="http://www.w3.org/2000/svg">
<path d="M202 28H0V0H202V28Z" fill="#FF3636"/>
<path d="M80.0568 19V10.2727H81.1136V14.1591H85.767V10.2727H86.8239V19H85.767V15.0966H81.1136V19H80.0568ZM91.4624 19.1364C90.8714 19.1364 90.353 18.9957 89.907 18.7145C89.4638 18.4332 89.1172 18.0398 88.8672 17.5341C88.62 17.0284 88.4964 16.4375 88.4964 15.7614C88.4964 15.0795 88.62 14.4844 88.8672 13.9759C89.1172 13.4673 89.4638 13.0724 89.907 12.7912C90.353 12.5099 90.8714 12.3693 91.4624 12.3693C92.0533 12.3693 92.5703 12.5099 93.0135 12.7912C93.4595 13.0724 93.8061 13.4673 94.0533 13.9759C94.3033 14.4844 94.4283 15.0795 94.4283 15.7614C94.4283 16.4375 94.3033 17.0284 94.0533 17.5341C93.8061 18.0398 93.4595 18.4332 93.0135 18.7145C92.5703 18.9957 92.0533 19.1364 91.4624 19.1364ZM91.4624 18.233C91.9112 18.233 92.2805 18.1179 92.5703 17.8878C92.8601 17.6577 93.0746 17.3551 93.2138 16.9801C93.353 16.6051 93.4226 16.1989 93.4226 15.7614C93.4226 15.3239 93.353 14.9162 93.2138 14.5384C93.0746 14.1605 92.8601 13.8551 92.5703 13.6222C92.2805 13.3892 91.9112 13.2727 91.4624 13.2727C91.0135 13.2727 90.6442 13.3892 90.3544 13.6222C90.0646 13.8551 89.8501 14.1605 89.7109 14.5384C89.5717 14.9162 89.5021 15.3239 89.5021 15.7614C89.5021 16.1989 89.5717 16.6051 89.7109 16.9801C89.8501 17.3551 90.0646 17.6577 90.3544 17.8878C90.6442 18.1179 91.0135 18.233 91.4624 18.233ZM95.9634 19V12.4545H98.6396C99.3441 12.4545 99.9038 12.6136 100.319 12.9318C100.733 13.25 100.941 13.6705 100.941 14.1932C100.941 14.5909 100.823 14.8991 100.587 15.1179C100.351 15.3338 100.049 15.4801 99.6793 15.5568C99.9208 15.5909 100.155 15.6761 100.382 15.8125C100.613 15.9489 100.803 16.1364 100.953 16.375C101.104 16.6108 101.179 16.9006 101.179 17.2443C101.179 17.5795 101.094 17.8793 100.924 18.1435C100.753 18.4077 100.509 18.6165 100.191 18.7699C99.8725 18.9233 99.4918 19 99.0487 19H95.9634ZM96.918 18.0795H99.0487C99.3952 18.0795 99.6665 17.9972 99.8626 17.8324C100.059 17.6676 100.157 17.4432 100.157 17.1591C100.157 16.821 100.059 16.5554 99.8626 16.3622C99.6665 16.1662 99.3952 16.0682 99.0487 16.0682H96.918V18.0795ZM96.918 15.1989H98.6396C98.9094 15.1989 99.141 15.1619 99.3342 15.0881C99.5273 15.0114 99.6751 14.9034 99.7773 14.7642C99.8825 14.6222 99.935 14.4545 99.935 14.2614C99.935 13.9858 99.82 13.7699 99.5898 13.6136C99.3597 13.4545 99.043 13.375 98.6396 13.375H96.918V15.1989ZM103.707 17.517L106.861 12.4545H108.02V19H107.014V13.9375L103.878 19H102.702V12.4545H103.707V17.517ZM109.862 19V12.4545H110.868V15.3011H111.532L113.885 12.4545H115.18L112.538 15.608L115.214 19H113.919L111.771 16.2386H110.868V19H109.862ZM118.233 19.1534C117.819 19.1534 117.442 19.0753 117.104 18.919C116.766 18.7599 116.498 18.5312 116.299 18.233C116.1 17.9318 116 17.5682 116 17.142C116 16.767 116.074 16.4631 116.222 16.2301C116.37 15.9943 116.567 15.8097 116.814 15.6761C117.061 15.5426 117.334 15.4432 117.632 15.3778C117.934 15.3097 118.236 15.2557 118.54 15.2159C118.938 15.1648 119.26 15.1264 119.507 15.1009C119.757 15.0724 119.939 15.0256 120.053 14.9602C120.169 14.8949 120.228 14.7812 120.228 14.6193V14.5852C120.228 14.1648 120.113 13.8381 119.882 13.6051C119.655 13.3722 119.31 13.2557 118.847 13.2557C118.367 13.2557 117.99 13.3608 117.718 13.571C117.445 13.7812 117.253 14.0057 117.142 14.2443L116.188 13.9034C116.358 13.5057 116.586 13.196 116.87 12.9744C117.157 12.75 117.469 12.5937 117.807 12.5057C118.148 12.4148 118.483 12.3693 118.813 12.3693C119.023 12.3693 119.265 12.3949 119.537 12.446C119.813 12.4943 120.078 12.5952 120.334 12.7486C120.593 12.902 120.807 13.1335 120.978 13.4432C121.148 13.7528 121.233 14.1676 121.233 14.6875V19H120.228V18.1136H120.176C120.108 18.2557 119.995 18.4077 119.836 18.5696C119.676 18.7315 119.465 18.8693 119.201 18.983C118.936 19.0966 118.614 19.1534 118.233 19.1534ZM118.387 18.25C118.784 18.25 119.12 18.1719 119.392 18.0156C119.668 17.8594 119.875 17.6577 120.015 17.4105C120.157 17.1634 120.228 16.9034 120.228 16.6307V15.7102C120.185 15.7614 120.091 15.8082 119.946 15.8509C119.804 15.8906 119.64 15.9261 119.452 15.9574C119.267 15.9858 119.087 16.0114 118.911 16.0341C118.738 16.054 118.597 16.071 118.489 16.0852C118.228 16.1193 117.983 16.1747 117.756 16.2514C117.532 16.3253 117.35 16.4375 117.211 16.5881C117.074 16.7358 117.006 16.9375 117.006 17.1932C117.006 17.5426 117.135 17.8068 117.394 17.9858C117.655 18.1619 117.986 18.25 118.387 18.25Z" fill="white"/>
</svg>
